<?xml version="1.0" encoding="utf-8"?>
<!-- Generator: Adobe Illustrator 18.0.0, SVG Export Plug-In . SVG Version: 6.00 Build 0)  -->
<!DOCTYPE svg PUBLIC "-//W3C//DTD SVG 1.1//EN" "http://www.w3.org/Graphics/SVG/1.1/DTD/svg11.dtd">
<svg version="1.1" id="Layer_1" xmlns="http://www.w3.org/2000/svg" xmlns:xlink="http://www.w3.org/1999/xlink" x="0px" y="0px"
	 viewBox="0 0 548.8 84" enable-background="new 0 0 548.8 84" xml:space="preserve">
<g>
	<g>
		<g>
			<rect x="192" y="43" fill="#E74342" width="16" height="3"/>
		</g>
		<g>
			<rect x="180" y="43" fill="#E74342" width="6" height="3"/>
		</g>
		<g>
			<rect x="197" y="17" fill="#E74342" width="17" height="3"/>
		</g>
		<g>
			<rect x="197" y="67" fill="#E74342" width="17" height="3"/>
		</g>
	</g>
	<g>
		<g>
			<rect x="511" y="43" fill="#E74342" width="16" height="3"/>
		</g>
		<g>
			<rect x="499" y="43" fill="#E74342" width="6" height="3"/>
		</g>
		<g>
			<rect x="516" y="17" fill="#E74342" width="17" height="3"/>
		</g>
		<g>
			<rect x="516" y="67" fill="#E74342" width="17" height="3"/>
		</g>
	</g>
</g>
<g>
	<path fill="#ffffff" d="M26.6,40.3c-2.7-1.1-4.9-2.5-6.5-4.3c-1.6-1.8-2.4-4.2-2.4-7.1c0-3,0.8-5.6,2.4-7.9c1.6-2.3,3.8-4,6.6-5.2
		s6.2-1.8,9.9-1.8c3.6,0,6.9,0.8,9.9,2.3c3,1.5,5.4,3.6,7.1,6.4c1.7,2.7,2.6,5.8,2.6,9.3h-2.9c0-3-0.7-5.7-2.2-8
		c-1.5-2.3-3.5-4.1-6.1-5.4c-2.6-1.3-5.4-1.9-8.6-1.9c-2.8,0-5.4,0.4-7.8,1.3c-2.4,0.9-4.4,2.2-5.9,4c-1.5,1.8-2.3,4.1-2.3,6.8
		c0,2.5,0.7,4.4,2.2,5.9c1.4,1.5,3.3,2.6,5.6,3.4s5.5,1.6,9.7,2.5c4.2,0.9,7.5,1.7,9.8,2.5c2.3,0.8,4.3,2.1,5.9,4
		c1.6,1.8,2.4,4.4,2.4,7.8c0,3.3-0.9,6.2-2.7,8.4c-1.8,2.3-4.1,4-7.1,5.1C43.7,69.4,40.5,70,37,70c-4.3,0-8-0.8-11.3-2.4
		s-5.7-3.8-7.4-6.7c-1.7-2.9-2.6-6.2-2.6-10h2.9c0,3.3,0.7,6.2,2.2,8.6c1.5,2.5,3.6,4.4,6.4,5.7c2.8,1.4,6.1,2,9.9,2
		c4.7,0,8.6-1.1,11.8-3.4s4.7-5.3,4.7-9.2c0-2.7-0.7-4.7-2-6.2c-1.3-1.4-3-2.5-5-3.1c-2-0.6-5.1-1.4-9.1-2.2
		C32.9,42.3,29.3,41.4,26.6,40.3z"/>
	<path fill="#ffffff" d="M114.8,15.2v2.9H94.5v50.8h-2.8V18.1H71.5v-2.9H114.8z"/>
	<path fill="#ffffff" d="M169.1,23.4c1.8,2.8,2.7,6,2.7,9.4c0,4-1.2,7.6-3.7,10.8s-5.6,5.3-9.4,6.3l13.6,19H169l-13.2-18.5l-2.5,0.1
		H134v18.4h-2.9V15.2h20.4c2.3,0,4.2,0.1,5.8,0.4c1.6,0.3,3.1,0.7,4.4,1.3C164.9,18.4,167.3,20.6,169.1,23.4z M154.1,47.6
		c2.7,0,5.1-0.7,7.4-2c2.3-1.3,4.1-3.1,5.4-5.4c1.3-2.3,2-4.7,2-7.4c0-3-0.8-5.7-2.4-8.1c-1.6-2.4-3.7-4.2-6.5-5.4
		c-2-0.8-4.8-1.2-8.5-1.2H134v29.5H154.1z"/>
	<path fill="#ffffff" d="M246.7,15.2h3l22,53.6h-3.1l-7.2-17.7H235l-7.3,17.7h-3L246.7,15.2z M236.2,48.4h24.1l-12.1-29.4
		L236.2,48.4z"/>
	<path fill="#ffffff" d="M286.4,68.9h-2.9V15.2h3.1l18.7,33.1L324,15.2h2.9v53.6H324V20.9l-17.3,30.6H304l-17.6-31V68.9z"/>
	<path fill="#ffffff" d="M383.9,15.2v2.9h-20.3v50.8h-2.8V18.1h-20.3v-2.9H383.9z"/>
	<path fill="#ffffff" d="M425.7,15.2v2.9h-16V66h16v2.9h-34.8V66h16V18.1h-16v-2.9H425.7z"/>
	<path fill="#ffffff" d="M446.5,68.9h-2.9V15.2h3.1l18.7,33.1l18.6-33.1h2.9v53.6h-2.9V20.9l-17.3,30.6h-2.7l-17.6-31V68.9z"/>
</g>
</svg>
